<svg xmlns="http://www.w3.org/2000/svg" width="400" height="400" viewBox="0 0 410 210">
  <path fill="#03d803" d="M6.57 126L14.01 126L14.01 98.03C14.01 91.93 16.50 86.94 24.49 86.94C25.87 86.94 27.33 86.98 28.10 87.11L28.10 80.37C27.20 80.24 26.25 80.15 25.31 80.15C18.91 80.15 15.51 83.68 14.18 86.38L13.96 86.38L13.96 80.84L6.57 80.84ZM53.50 126.73C63.46 126.73 69.44 121.19 71.16 113.71L63.81 113.71C62.35 117.92 58.91 120.54 53.67 120.54C46.32 120.54 41.94 114.66 41.94 106.06L41.94 105.25L71.76 105.25L71.76 101.04C71.76 88.62 64.97 80.11 53.15 80.11C41.29 80.11 34.55 88.62 34.55 100.52L34.55 105.59C34.55 118.44 41.72 126.73 53.50 126.73ZM41.94 99.27L41.94 99.14C41.94 92.01 46.32 86.30 53.20 86.30C59.94 86.30 64.37 91.97 64.37 99.14L64.37 99.27Z"/>
  <path d="M85.77 80.84L79.66 80.84L79.66 87.03L85.72 87.03L85.72 113.37C85.72 122.26 87.91 126.39 98.61 126.39C100.16 126.39 101.71 126.21 102.35 126.09L102.35 120.16C101.75 120.24 101.19 120.24 100.46 120.24C94.92 120.24 93.11 118.87 93.11 113.45L93.11 87.03L102.05 87.03L102.05 80.84L93.11 80.84L93.11 69.58L85.77 69.58ZM129.72 126.73C139.69 126.73 145.66 121.19 147.38 113.71L140.04 113.71C138.57 117.92 135.14 120.54 129.89 120.54C122.55 120.54 118.16 114.66 118.16 106.06L118.16 105.25L147.98 105.25L147.98 101.04C147.98 88.62 141.20 80.11 129.38 80.11C117.52 80.11 110.77 88.62 110.77 100.52L110.77 105.59C110.77 118.44 117.95 126.73 129.72 126.73ZM118.16 99.27L118.16 99.14C118.16 92.01 122.55 86.30 129.42 86.30C136.17 86.30 140.59 91.97 140.59 99.14L140.59 99.27ZM185.11 126L193.92 126L178.36 103.40L193.57 80.84L185.11 80.84L174.07 97.98L174.02 97.98L162.98 80.84L154.13 80.84L169.25 103.40L153.74 126L162.12 126L173.55 108.94L173.59 108.94ZM204.49 80.84L198.39 80.84L198.39 87.03L204.45 87.03L204.45 113.37C204.45 122.26 206.64 126.39 217.34 126.39C218.88 126.39 220.43 126.21 221.07 126.09L221.07 120.16C220.47 120.24 219.91 120.24 219.18 120.24C213.64 120.24 211.84 118.87 211.84 113.45L211.84 87.03L220.77 87.03L220.77 80.84L211.84 80.84L211.84 69.58L204.49 69.58Z"/>
</svg>
