<svg height="256" viewBox="0 0 256 256" width="256" xmlns="http://www.w3.org/2000/svg">
  <style>
    .b {fill: #0d1117}
    .l {fill: #fff}
    @media (prefers-color-scheme: light) {
      .b {fill: #fff}
      .l {fill: #0d1117}
    }
  </style>
  <rect class="b" height="256" width="256" x="0" y="0"/>
  <path fill="#03d803" transform="translate(-380, -32)" d="M411.97 169.61L411.97 155.43Q411.97 148.96 414.99 145.12Q418.01 141.28 423.10 141.28L423.10 141.28Q424.39 141.28 425.80 141.52Q427.21 141.75 428.29 142.16L428.29 142.16L428.29 137.97Q427.56 137.65 426.31 137.46Q425.07 137.27 423.69 137.27L423.69 137.27Q419.09 137.27 416.10 139.57Q413.11 141.87 412.29 146.09L412.29 146.09L411.88 146.09L411.88 138.06L400.99 138.06L400.99 141.17L408.13 141.17L408.13 169.61L411.97 169.61ZM401.63 169.61L421.99 169.61L421.99 166.51L401.63 166.51L401.63 169.61ZM450.88 140.93L450.88 140.93Q455.07 140.93 457.43 143.79Q459.78 146.65 459.78 151.68L459.78 151.68L441.74 151.68Q441.74 146.62 444.17 143.77Q446.60 140.93 450.88 140.93ZM463.53 161.82L459.73 161.82Q458.99 164.14 456.77 165.42Q454.54 166.71 451.32 166.71L451.32 166.71Q446.92 166.71 444.33 163.80Q441.74 160.88 441.74 155.93L441.74 155.93L441.74 154.85L463.68 154.85L463.68 152.36Q463.68 147.64 462.17 144.33Q460.66 141.02 457.81 139.28Q454.95 137.53 450.88 137.53L450.88 137.53Q446.98 137.53 444.05 139.25Q441.12 140.96 439.51 144.05Q437.90 147.14 437.90 151.30L437.90 151.30L437.90 155.90Q437.90 162.64 441.43 166.39Q444.96 170.14 451.32 170.14L451.32 170.14Q454.51 170.14 457.07 169.12Q459.64 168.09 461.32 166.22Q463.01 164.34 463.53 161.82L463.53 161.82Z"/>
  <path class="l" transform="translate(-380, -32)" d="M486.53 129.86L482.69 129.86L482.69 138.06L474.20 138.06L474.20 141.31L482.69 141.31L482.69 160.50Q482.69 163.61 483.95 165.67Q485.21 167.74 487.73 168.76Q490.25 169.79 494.03 169.79L494.03 169.79Q495.41 169.79 497.23 169.67Q499.04 169.56 499.75 169.44L499.75 169.44L499.75 166.16Q498.98 166.27 497.43 166.33Q495.88 166.39 494.24 166.39L494.24 166.39Q490.49 166.39 488.51 164.85Q486.53 163.32 486.53 160.39L486.53 160.39L486.53 141.31L499.75 141.31L499.75 138.06L486.53 138.06L486.53 129.86ZM525.06 140.93L525.06 140.93Q529.25 140.93 531.61 143.79Q533.96 146.65 533.96 151.68L533.96 151.68L515.92 151.68Q515.92 146.62 518.35 143.77Q520.78 140.93 525.06 140.93ZM537.71 161.82L533.91 161.82Q533.17 164.14 530.95 165.42Q528.72 166.71 525.50 166.71L525.50 166.71Q521.10 166.71 518.51 163.80Q515.92 160.88 515.92 155.93L515.92 155.93L515.92 154.85L537.86 154.85L537.86 152.36Q537.86 147.64 536.35 144.33Q534.84 141.02 531.99 139.28Q529.13 137.53 525.06 137.53L525.06 137.53Q521.16 137.53 518.23 139.25Q515.30 140.96 513.69 144.05Q512.08 147.14 512.08 151.30L512.08 151.30L512.08 155.90Q512.08 162.64 515.61 166.39Q519.14 170.14 525.50 170.14L525.50 170.14Q528.69 170.14 531.25 169.12Q533.82 168.09 535.50 166.22Q537.19 164.34 537.71 161.82L537.71 161.82ZM561.62 156.72L561.97 156.72L570.56 169.61L575.16 169.61L563.96 153.59L575.04 138.06L570.61 138.06L562.09 150.66L561.74 150.66L553.15 138.06L548.52 138.06L559.75 153.74L548.61 169.61L553.01 169.61L561.62 156.72ZM597.80 129.86L593.96 129.86L593.96 138.06L585.47 138.06L585.47 141.31L593.96 141.31L593.96 160.50Q593.96 163.61 595.22 165.67Q596.48 167.74 599.00 168.76Q601.52 169.79 605.30 169.79L605.30 169.79Q606.68 169.79 608.50 169.67Q610.31 169.56 611.01 169.44L611.01 169.44L611.01 166.16Q610.25 166.27 608.70 166.33Q607.15 166.39 605.51 166.39L605.51 166.39Q601.76 166.39 599.78 164.85Q597.80 163.32 597.80 160.39L597.80 160.39L597.80 141.31L611.01 141.31L611.01 138.06L597.80 138.06L597.80 129.86Z"/>
</svg>
