<svg xmlns="http://www.w3.org/2000/svg" width="199" height="207">
  <path fill="#000" d="M5.16 122L7.26 122L7.26 93.21C7.26 83.84 11.99 77.10 19.64 77.10C21.91 77.10 23.59 77.66 24.62 78.17L24.62 75.98C23.72 75.59 21.91 75.08 19.98 75.08C13.62 75.08 9.24 78.64 7.22 85.35L7.13 85.35L7.13 75.77L5.16 75.77ZM48.81 77.05C59.30 77.05 66.34 85.18 66.34 97.04L30.89 97.04C31.41 85.05 38.50 77.05 48.81 77.05ZM65.70 109.15C64.32 115.68 58.44 120.71 49.20 120.71C38.16 120.71 30.85 112.80 30.85 99.05L30.85 98.97L68.49 98.97L68.49 97.34C68.49 84.06 60.59 75.08 48.81 75.08C36.70 75.08 28.70 84.53 28.70 98.88C28.70 113.92 36.74 122.69 49.16 122.69C59.51 122.69 66.34 116.93 67.89 109.15ZM79.02"/>
  <path fill="#4c1" d="M79.02 63.39L79.02 75.77L72.14 75.77L72.14 77.70L79.02 77.70L79.02 111.95C79.02 119.16 81.77 122.04 88 122.04C88.13 122.04 91.22 122 91.31 122L91.31 120.02C91.27 120.02 88.17 120.07 88.13 120.07C83.23 120.07 81.13 117.79 81.13 111.90L81.13 77.70L90.49 77.70L90.49 75.77L81.13 75.77L81.13 63.39ZM116.83 77.05C127.32 77.05 134.36 85.18 134.36 97.04L98.91 97.04C99.43 85.05 106.52 77.05 116.83 77.05ZM133.72 109.15C132.34 115.68 126.46 120.71 117.22 120.71C106.18 120.71 98.87 112.80 98.87 99.05L98.87 98.97L136.51 98.97L136.51 97.34C136.51 84.06 128.61 75.08 116.83 75.08C104.71 75.08 96.72 84.53 96.72 98.88C96.72 113.92 104.76 122.69 117.18 122.69C127.53 122.69 134.36 116.93 135.91 109.15ZM158.04 100.26L173.94 122L176.52 122L159.29 98.41L176.56 75.77L173.89 75.77L158.04 96.78L157.95 96.78L142.10 75.77L139.43 75.77L156.71 98.45L139.39 122L142.01 122L157.91 100.26ZM184.38 63.39L184.38 75.77L177.50 75.77L177.50 77.70L184.38 77.70L184.38 111.95C184.38 119.16 187.13 122.04 193.36 122.04C193.49 122.04 196.58 122 196.67 122L196.67 120.02C196.63 120.02 193.53 120.07 193.49 120.07C188.59 120.07 186.48 117.79 186.48 111.90L186.48 77.70L195.85 77.70L195.85 75.77L186.48 75.77L186.48 63.39Z"/>
</svg>
